#define aslan_width 16
#define aslan_height 16
static char aslan_bits[] = {
   0x80, 0x01, 0x80, 0x01, 0xc0, 0x03, 0x60, 0x06, 0x60, 0x06, 0x30, 0x0c,
   0x30, 0x0c, 0x18, 0x18, 0x18, 0x18, 0x30, 0x0c, 0x30, 0x0c, 0x60, 0x06,
   0x60, 0x06, 0xc0, 0x03, 0x80, 0x01, 0x80, 0x01};
