#define corsair_width 16
#define corsair_height 16
static char corsair_bits[] = {
   0x00, 0x00, 0x00, 0x00, 0x00, 0x00, 0x00, 0x00, 0x00, 0x00, 0x08, 0x08,
   0x1c, 0x1c, 0x7f, 0x7f, 0x3e, 0x3e, 0x1c, 0x1c, 0x36, 0x36, 0x00, 0x00,
   0x00, 0x00, 0x00, 0x00, 0x00, 0x00, 0x00, 0x00};
