#define depot_width 12
#define depot_height 12
static char depot_bits[] = {
   0x00, 0x00, 0xfe, 0x07, 0xfe, 0x07, 0xfe, 0x07, 0xfe, 0x07, 0xfe, 0x07,
   0xfe, 0x07, 0xfe, 0x07, 0xfe, 0x07, 0xfe, 0x07, 0xfe, 0x07, 0x00, 0x00};
