#define military_width 16
#define military_height 16
static char military_bits[] = {
   0x00, 0x00, 0x00, 0x00, 0x00, 0x00, 0x00, 0x00, 0x00, 0x00, 0x38, 0x1c,
   0x7c, 0x3e, 0x7c, 0x3e, 0x7c, 0x3e, 0x38, 0x1c, 0x00, 0x00, 0x00, 0x00,
   0x00, 0x00, 0x00, 0x00, 0x00, 0x00, 0x00, 0x00};
