#define naval2_width 12
#define naval2_height 12
static char naval2_bits[] = {
   0x00, 0x00, 0x60, 0x00, 0x60, 0x00, 0x90, 0x00, 0x9e, 0x07, 0x04, 0x02,
   0x08, 0x01, 0x90, 0x00, 0x08, 0x01, 0xf8, 0x01, 0x0c, 0x03, 0x00, 0x00};
