#define naval1_width 12
#define naval1_height 12
static char naval1_bits[] = {
   0x00, 0x00, 0x60, 0x00, 0x60, 0x00, 0xf0, 0x00, 0xfe, 0x07, 0xfc, 0x03,
   0xf8, 0x01, 0xf0, 0x00, 0xf8, 0x01, 0xf8, 0x01, 0x0c, 0x03, 0x00, 0x00};
