#define scout2_width 12
#define scout2_height 12
static char scout2_bits[] = {
   0x00, 0x00, 0x60, 0x00, 0x60, 0x00, 0x90, 0x00, 0x90, 0x00, 0x08, 0x01,
   0x08, 0x01, 0x04, 0x02, 0x04, 0x02, 0x02, 0x04, 0xfe, 0x07, 0x00, 0x00};
