#define tlaukhu_width 16
#define tlaukhu_height 16
static char tlaukhu_bits[] = {
   0x00, 0x00, 0x00, 0x00, 0x00, 0x00, 0x30, 0x18, 0x70, 0x1c, 0xe0, 0x0e,
   0x80, 0x03, 0xe0, 0x0f, 0xe0, 0x0f, 0x80, 0x03, 0xe0, 0x0f, 0xe0, 0x0f,
   0x80, 0x03, 0x80, 0x03, 0x00, 0x00, 0x00, 0x00};
